<svg width="123" height="123" viewBox="0 0 123 123" fill="none" xmlns="http://www.w3.org/2000/svg">
<g id="Group">
<path id="Vector" d="M50.1687 79.8749L37.2572 102.66C37.1272 102.888 37.0443 103.139 37.0132 103.4C36.9822 103.66 37.0037 103.924 37.0765 104.176C37.2264 104.689 37.5732 105.122 38.0412 105.379C52.3339 113.373 70.6691 113.373 84.9526 105.379C85.4229 105.123 85.7721 104.69 85.9234 104.176C85.9958 103.924 86.0168 103.66 85.9852 103.399C85.9537 103.139 85.8702 102.887 85.7397 102.66L72.8343 79.8749C69.5842 82.3685 65.5994 83.7147 61.503 83.7031C57.4056 83.7154 53.4196 82.3692 50.1687 79.8749ZM51.8531 42.2797L38.5741 19.706C38.4424 19.4797 38.2667 19.2821 38.0573 19.1248C37.848 18.9675 37.6093 18.8538 37.3552 18.7903C36.8347 18.6633 36.285 18.7481 35.827 19.0261C21.761 27.4051 12.5918 43.2811 12.3713 59.6502C12.3654 59.9157 12.4119 60.1797 12.5081 60.4272C12.6042 60.6747 12.7482 60.9008 12.9318 61.0926C13.2993 61.4754 13.8015 61.6898 14.3344 61.6929L40.5188 61.9073C39.9859 57.8456 40.8141 53.7219 42.8738 50.1809C44.9112 46.627 48.0688 43.8484 51.8531 42.2797ZM82.4781 62.3421L108.666 62.1308C108.928 62.1296 109.187 62.0759 109.428 61.9728C109.669 61.8697 109.886 61.7193 110.068 61.5306C110.438 61.1439 110.64 60.6263 110.629 60.0912C110.405 43.7191 101.239 27.8431 87.1729 19.4671C86.7162 19.1889 86.1677 19.103 85.6478 19.2283C85.3927 19.291 85.1527 19.4044 84.9423 19.5617C84.7318 19.719 84.5552 19.917 84.4228 20.1439L71.1469 42.7146C74.9311 44.2833 78.0888 47.0618 80.1261 50.6158C82.1877 54.1572 83.0149 58.2798 82.4781 62.3421ZM76.8125 61.4999C76.8125 65.5611 75.1992 69.4559 72.3275 72.3275C69.4559 75.1992 65.5611 76.8124 61.5 76.8124C57.4389 76.8124 53.5441 75.1992 50.6724 72.3275C47.8008 69.4559 46.1875 65.5611 46.1875 61.4999C46.1875 57.4388 47.8008 53.544 50.6724 50.6724C53.5441 47.8007 57.4389 46.1874 61.5 46.1874C65.5611 46.1874 69.4559 47.8007 72.3275 50.6724C75.1992 53.544 76.8125 57.4388 76.8125 61.4999Z" fill="black"/>
<path id="Vector_2" fill-rule="evenodd" clip-rule="evenodd" d="M61.5 116.625C91.9443 116.625 116.625 91.9443 116.625 61.5C116.625 31.0557 91.9443 6.375 61.5 6.375C31.0557 6.375 6.375 31.0557 6.375 61.5C6.375 91.9443 31.0557 116.625 61.5 116.625ZM61.5 122.75C95.3284 122.75 122.75 95.3284 122.75 61.5C122.75 27.6716 95.3284 0.25 61.5 0.25C27.6716 0.25 0.25 27.6716 0.25 61.5C0.25 95.3284 27.6716 122.75 61.5 122.75Z" fill="black"/>
</g>
</svg>
